#!OML:ASF X:\für Bonn\!DataBase\2005_08_10_Bjorn_Final\c3d\bjorn.ASF
:FULLY-SPECIFIED
:DEGREES
93
root 0.515784 8.33038 3.63 -189.327 -4.14541 177.89
lowerback 32.1985 2.12788 2.59026
upperback 13.9768 -0.841672 -0.253923
thorax -1.61826 -2.05959 -1.45184
lowerneck -26.3235 -1.35412 1.82238
upperneck -4.33853 -4.09867 -0.417599
head 2.57876 -2.8382 -0.829917
rclavicle 2.36554e-014 -4.17448e-015
rhumerus 82.8334 -4.14469 -74.8814
rradius 7.66701
rwrist 47.6371
rhand -12.8533 8.46239
rfingers 7.12502
rthumb 13.2347 -21.0975
lclavicle 2.36554e-014 -4.17448e-015
lhumerus 83.6026 -4.79612 49.1999
lradius 12.3109
lwrist -33.0427
lhand -18.4453 -9.68875
lfingers 7.12502
lthumb 7.84052 20.1459
rfemur 24.8671 -77.8911 -111.345
rtibia 151.78
rfoot -71.8792 60.8961
rtoes -24.7374
lfemur -50.566 76.2016 18.7761
ltibia 153.342
lfoot -49.6291 -34.6189
ltoes -35.4893
94
root 0.519167 8.32375 3.63204 -189.276 -4.20235 177.9
lowerback 32.2958 2.11434 2.65358
upperback 14.0278 -0.865967 -0.20972
thorax -1.59947 -2.08076 -1.43131
lowerneck -26.1055 -1.3669 1.91845
upperneck -4.63419 -4.1637 -0.414757
head 2.45616 -2.88511 -0.842532
rclavicle 8.05078e-015 1.98785e-015
rhumerus 82.2721 -3.96421 -74.8404
rradius 8.02545
rwrist 47.3987
rhand -13.0246 8.53187
rfingers 7.12502
rthumb 13.0695 -21.0386
lclavicle 8.05078e-015 1.98785e-015
lhumerus 83.4564 -4.92995 49.0602
lradius 12.2968
lwrist -32.5683
lhand -18.5398 -9.77911
lfingers 7.12502
lthumb 7.74937 20.0589
rfemur 27.1698 -77.6373 -113.792
rtibia 151.806
rfoot -72.5123 61.2527
rtoes -24.257
lfemur -48.8917 76.8182 20.2607
ltibia 153.436
lfoot -50.0667 -33.9522
ltoes -35.6349
95
root 0.523006 8.34116 3.63484 -189.244 -4.26872 177.899
lowerback 32.5078 2.09158 2.6971
upperback 14.0276 -0.895149 -0.16603
thorax -1.68963 -2.10324 -1.39389
lowerneck -25.3277 -1.39406 2.01358
upperneck -5.50818 -4.21427 -0.321971
head 2.47243 -2.91606 -0.91518
rclavicle 3.8763e-015 2.18663e-015
rhumerus 81.6542 -3.75573 -74.795
rradius 8.29421
rwrist 47.224
rhand -13.3486 8.6245
rfingers 7.12502
rthumb 12.7571 -20.9658
lclavicle 3.8763e-015 2.18663e-015
lhumerus 83.176 -5.12503 48.9646
lradius 12.3521
lwrist -32.1586
lhand -19.0947 -9.74273
lfingers 7.12502
lthumb 7.21373 20.1143
rfemur 26.9691 -77.6296 -113.407
rtibia 151.653
rfoot -72.606 61.4638
rtoes -23.8437
lfemur -49.09 76.7173 19.6356
ltibia 153.342
lfoot -50.1126 -33.3491
ltoes -35.6554
96
root 0.52562 8.38311 3.63816 -189.177 -4.33911 177.937
lowerback 32.756 2.04201 2.77358
upperback 13.9836 -0.931983 -0.0994355
thorax -1.84524 -2.12447 -1.34481
lowerneck -25.084 -1.40878 2.0977
upperneck -5.67844 -4.25409 -0.377465
head 2.36549 -2.94385 -0.942384
rclavicle -5.76476e-015 1.17283e-014
rhumerus 81.1009 -3.53186 -74.7193
rradius 8.36059
rwrist 47.2801
rhand -13.7543 8.73586
rfingers 7.12502
rthumb 12.366 -20.8784
lclavicle -5.76476e-015 1.17283e-014
lhumerus 82.7199 -5.29751 49.5885
lradius 12.518
lwrist -32.7924
lhand -19.2915 -9.7263
lfingers 7.12502
lthumb 7.02375 20.1372
rfemur 23.8966 -77.9951 -109.789
rtibia 151.321
rfoot -71.8263 61.734
rtoes -23.4304
lfemur -55.7943 73.9062 12.1273
ltibia 153.071
lfoot -48.7818 -32.4498
ltoes -35.612
97
root 0.528142 8.44504 3.64238 -188.983 -4.41636 177.933
lowerback 32.8436 2.00694 2.82936
upperback 13.9863 -0.962945 -0.0585933
thorax -1.87872 -2.14088 -1.31954
lowerneck -24.9502 -1.41619 2.20905
upperneck -5.8792 -4.3107 -0.408636
head 2.26656 -2.98643 -0.969931
rclavicle 1.78906e-015 3.97569e-015
rhumerus 80.7513 -3.41551 -74.6686
rradius 8.35538
rwrist 47.3342
rhand -13.961 8.81391
rfingers 7.12502
rthumb 12.1668 -20.8123
lclavicle 1.78906e-015 3.97569e-015
lhumerus 82.2522 -5.38723 50.8308
lradius 12.8149
lwrist -34.4573
lhand -19.2139 -9.75543
lfingers 7.12502
lthumb 7.09864 20.1055
rfemur 18.4361 -78.6303 -103.583
rtibia 150.861
rfoot -70.2479 62.1346
rtoes -22.6939
lfemur -60.8106 71.0107 6.17454
ltibia 152.672
lfoot -47.4492 -31.4162
ltoes -35.6053
